<svg id="visual" viewBox="0 0 960 540" width="960" height="540" xmlns="http://www.w3.org/2000/svg" xmlns:xlink="http://www.w3.org/1999/xlink" version="1.1"><path d="M0 32L9.3 34.2C18.7 36.3 37.3 40.7 56.2 44.3C75 48 94 51 112.8 51.7C131.7 52.3 150.3 50.7 169.2 48.8C188 47 207 45 225.8 48.2C244.7 51.3 263.3 59.7 282.2 65.3C301 71 320 74 338.8 68.2C357.7 62.3 376.3 47.7 395.2 40C414 32.3 433 31.7 451.8 37.2C470.7 42.7 489.3 54.3 508.2 56.7C527 59 546 52 564.8 46.3C583.7 40.7 602.3 36.3 621.2 39.8C640 43.3 659 54.7 677.8 60.5C696.7 66.3 715.3 66.7 734.2 61.2C753 55.7 772 44.3 790.8 39.2C809.7 34 828.3 35 847.2 39.7C866 44.3 885 52.7 903.8 53.2C922.7 53.7 941.3 46.3 950.7 42.7L960 39L960 0L950.7 0C941.3 0 922.7 0 903.8 0C885 0 866 0 847.2 0C828.3 0 809.7 0 790.8 0C772 0 753 0 734.2 0C715.3 0 696.7 0 677.8 0C659 0 640 0 621.2 0C602.3 0 583.7 0 564.8 0C546 0 527 0 508.2 0C489.3 0 470.7 0 451.8 0C433 0 414 0 395.2 0C376.3 0 357.7 0 338.8 0C320 0 301 0 282.2 0C263.3 0 244.7 0 225.8 0C207 0 188 0 169.2 0C150.3 0 131.7 0 112.8 0C94 0 75 0 56.2 0C37.3 0 18.7 0 9.3 0L0 0Z" fill="#3B82F6" stroke-linecap="round" stroke-linejoin="miter"></path></svg>